HIERARCHY
ROOT root
{
	OFFSET	0	13.1	24.9
	CHANNELS 6  Xposition Yposition Zposition Xrotation Yrotation Zrotation
	JOINT spine_1
	{
		OFFSET	0	9.99999	0
		CHANNELS 3  Xrotation Yrotation Zrotation
		JOINT spine_2
		{
			OFFSET	0	112	-10
			CHANNELS 3  Xrotation Yrotation Zrotation
			JOINT spine_3
			{
				OFFSET	0	206.5	19.3
				CHANNELS 3  Xrotation Yrotation Zrotation
				JOINT spine_4
				{
					OFFSET	0	110.4	14.6
					CHANNELS 3  Xrotation Yrotation Zrotation
					JOINT neck_1
					{
						OFFSET	0	71.8	-50.3
						CHANNELS 3  Xrotation Yrotation Zrotation
						JOINT neck_2
						{
							OFFSET	0	86.2	-25.8
							CHANNELS 3  Xrotation Yrotation Zrotation
							JOINT head_ee
							{
								OFFSET	0	179.8	-8.7
								CHANNELS 3  Xrotation Yrotation Zrotation
								End Site
								{
									OFFSET	1	0	0
								}
							}
						}
					}
					JOINT left_clavicle
					{
						OFFSET	-43.2	22.4	-70.8
						CHANNELS 3  Xrotation Yrotation Zrotation
						JOINT left_shoulder
						{
							OFFSET	-93.9	-5.79999	48.7
							CHANNELS 3  Xrotation Yrotation Zrotation
							JOINT left_elbow
							{
								OFFSET	-291.4	-30.8	15.2
								CHANNELS 3  Xrotation Yrotation Zrotation
								JOINT left_lowarm_twist
								{
									OFFSET	-110.7	-3.89999	13.6
									CHANNELS 3  Xrotation Yrotation Zrotation
									JOINT left_hand
									{
										OFFSET	-110.7	-3.89999	13.6
										CHANNELS 3  Xrotation Yrotation Zrotation
										JOINT left_ee
										{
											OFFSET	-80.8	-5.10001	12.1
											CHANNELS 3  Xrotation Yrotation Zrotation
											End Site
											{
												OFFSET	1	0	0
											}
										}
									}
								}
							}
						}
					}
					JOINT right_clavicle
					{
						OFFSET	43.2	22.4	-70.8
						CHANNELS 3  Xrotation Yrotation Zrotation
						JOINT right_shoulder
						{
							OFFSET	93.9	-5.79999	48.7
							CHANNELS 3  Xrotation Yrotation Zrotation
							JOINT right_elbow
							{
								OFFSET	291.4	-30.8	15.2
								CHANNELS 3  Xrotation Yrotation Zrotation
								JOINT right_lowarm_twist
								{
									OFFSET	110.7	-3.89999	13.6
									CHANNELS 3  Xrotation Yrotation Zrotation
									JOINT right_hand
									{
										OFFSET	110.7	-3.89999	13.6
										CHANNELS 3  Xrotation Yrotation Zrotation
										JOINT right_ee
										{
											OFFSET	80.8	-5.10001	12.1
											CHANNELS 3  Xrotation Yrotation Zrotation
											End Site
											{
												OFFSET	1	0	0
											}
										}
									}
								}
							}
						}
					}
				}
			}
		}
	}
	JOINT left_hip
	{
		OFFSET	-82.8	-127.5	0.300001
		CHANNELS 3  Xrotation Yrotation Zrotation
		JOINT left_knee
		{
			OFFSET	-28.2	-396.7	2.2
			CHANNELS 3  Xrotation Yrotation Zrotation
			JOINT left_ankle
			{
				OFFSET	-11.7	-411.3	35.4
				CHANNELS 3  Xrotation Yrotation Zrotation
				JOINT left_toes
				{
					OFFSET	0	-60	-88.6
					CHANNELS 3  Xrotation Yrotation Zrotation
					JOINT left_foot_ee
					{
						OFFSET	-22.5	-16.5	-42.2
						CHANNELS 3  Xrotation Yrotation Zrotation
						End Site
						{
							OFFSET	1	0	0
						}
					}
				}
			}
		}
	}
	JOINT right_hip
	{
		OFFSET	82.8	-127.5	0.300001
		CHANNELS 3  Xrotation Yrotation Zrotation
		JOINT right_knee
		{
			OFFSET	28.2	-396.7	2.2
			CHANNELS 3  Xrotation Yrotation Zrotation
			JOINT right_ankle
			{
				OFFSET	11.7	-411.3	35.4
				CHANNELS 3  Xrotation Yrotation Zrotation
				JOINT right_toes
				{
					OFFSET	0	-60	-88.6
					CHANNELS 3  Xrotation Yrotation Zrotation
					JOINT right_foot_ee
					{
						OFFSET	22.5	-16.5	-42.2
						CHANNELS 3  Xrotation Yrotation Zrotation
						End Site
						{
							OFFSET	1	0	0
						}
					}
				}
			}
		}
	}
}
MOTION
Frames: 13
Frame Time: 0.02
924.38477371 581.813 -1796.08341785 -23.1682240816 45.4195195159 21.3049087828 7.74146 -0.62531 -1.19175 7.74208 -0.548214 -1.22912 7.75266 -0.452863 -1.26735 7.751 -0.64732 -1.17994 -4.17649 -7.8442 1.47004 -4.08805 -15.4777 0.250593 -0.0 0.0 -0.0 3.51409 4.33257 7.00742 -9.76765 -24.3089 70.8849 3.70028 -61.3692 2.19621 85.3136 -4.46411 -8.88049 2.71925 4.92844 20.3874 -0.0 0.0 -0.0 -2.59803 -23.6419 0.809522 -42.8751 41.98 -55.0147 1.71946 40.4199 -0.63302 -0.796352 0.0287388 -0.0976378 -1.94152 -28.8392 -0.781206 0.0 0.0 0.0 30.3567 10.0859 0.402943 -9.72407 0.276612 1.46492 19.5447 -29.6791 -3.33817 -2.93799 0.0 0.0 -0.0 0.0 -0.0 41.2236 -0.259759 -5.06153 -59.97 2.19675 -8.52215 1.15784 -25.5533 0.17686 37.6262 -0.0 -0.0 0.0 0.0 0.0 
919.913047922 584.073 -1796.72446964 -23.5844804932 47.0430916459 21.9104770381 7.79667 -0.677431 -1.12019 7.79716 -0.604783 -1.16102 7.80842 -0.515639 -1.20326 7.80708 -0.699189 -1.10674 -4.6426 -6.7097 0.364769 -4.6001 -12.5891 -0.752528 -0.0 0.0 -0.0 4.12169 1.13811 8.00512 -7.55617 -24.6918 70.6862 3.71955 -61.494 2.21314 85.1154 -4.44035 -8.87144 1.12676 2.88452 8.70536 -0.0 0.0 -0.0 -2.68492 -23.7677 0.904652 -41.3387 43.0995 -56.3625 1.48113 36.2655 -0.485069 0.0575757 -0.00202492 0.0070743 -1.87766 -28.5833 -1.00266 0.0 0.0 0.0 30.025 9.65994 0.38114 -9.03214 0.265188 1.35936 20.3198 -31.8 -3.5552 -3.66064 0.0 0.0 -0.0 0.0 -0.0 43.9593 2.85066 -6.99433 -56.0199 1.78588 -8.07256 -0.367484 -29.5025 -0.0576826 36.022 -0.0 -0.0 0.0 0.0 0.0 
914.540684963 584.315 -1801.1495512 -30.4892982137 52.8939396729 31.1570077038 7.72122 -0.794465 -1.55625 7.7223 -0.69384 -1.60364 7.73969 -0.569222 -1.65198 7.73683 -0.822947 -1.54139 -6.27879 -5.78095 -1.40187 -6.26911 -9.67502 -2.51875 -0.0 0.0 -0.0 4.78697 -1.75597 9.17695 -3.9049 -24.8576 71.8221 3.88755 -62.5411 2.3615 84.5638 -4.37436 -8.84582 -1.14806 -0.399192 -7.86747 -0.0 0.0 -0.0 -2.75331 -24.8916 0.783213 -40.968 44.2474 -58.9032 1.14022 29.4582 -0.299761 2.45454 -0.0799928 0.303277 -1.76893 -28.8572 -1.71547 0.0 0.0 0.0 29.3163 9.10023 -0.8538 -7.50502 0.235469 1.12691 23.0976 -31.3914 -3.95042 -5.33951 0.0 0.0 -0.0 0.0 -0.0 48.0842 11.5191 -9.2774 -49.504 1.17925 -7.27332 0.835564 -29.4326 0.130758 36.1735 -0.0 -0.0 0.0 0.0 0.0 
914.952918786 584.315 -1801.5884849 -30.3567883494 52.7227140227 30.9906673506 7.72122 -0.794465 -1.55625 7.7223 -0.69384 -1.60364 7.73969 -0.569222 -1.65198 7.73683 -0.822947 -1.54139 -6.27879 -5.78095 -1.40187 -6.26911 -9.67502 -2.51875 -0.0 0.0 -0.0 4.78697 -1.75597 9.17695 -3.9049 -24.8576 71.8221 3.88755 -62.5411 2.3615 84.5638 -4.37436 -8.84582 -1.14806 -0.399192 -7.86747 -0.0 0.0 -0.0 -2.75331 -24.8916 0.783213 -40.968 44.2474 -58.9032 1.14022 29.4582 -0.299761 2.45454 -0.0799928 0.303277 -1.76893 -28.8572 -1.71547 0.0 0.0 0.0 29.3163 9.10023 -0.8538 -7.50502 0.235469 1.12691 23.0976 -31.3914 -3.95042 -5.33951 0.0 0.0 -0.0 0.0 -0.0 48.0842 11.5191 -9.2774 -49.504 1.17925 -7.27332 0.835564 -29.4326 0.130758 36.1735 -0.0 -0.0 0.0 0.0 0.0 
905.112691813 583.921 -1805.81436499 -29.3861510141 53.5551399043 29.9119129312 7.63945 -0.768458 -1.37063 7.64024 -0.679693 -1.41674 7.65555 -0.567224 -1.46539 7.65342 -0.791516 -1.35745 -6.6924 -5.76973 -1.44306 -6.68627 -9.65514 -2.58816 -0.0 0.0 -0.0 4.83452 -1.62682 9.27615 -3.91581 -24.8643 71.9491 3.88575 -62.5303 2.35991 84.5642 -4.37442 -8.84584 -1.1255 -0.78174 -7.8853 -0.0 0.0 -0.0 -2.72592 -24.8487 0.754935 -40.9091 44.3399 -59.1275 1.13493 29.3442 -0.297162 2.61294 -0.0847072 0.322961 -1.69755 -28.8634 -2.1013 0.0 0.0 0.0 29.2 9.11239 -0.901995 -7.51499 0.235684 1.12842 23.0972 -31.3849 -3.95002 -5.34709 0.0 0.0 -0.0 0.0 -0.0 48.3312 11.494 -9.27031 -46.814 0.956149 -6.92447 2.72193 -29.5127 0.424363 36.3667 -0.0 -0.0 0.0 0.0 0.0 
905.121105249 583.79 -1804.6855618 -30.4371539322 53.5615995786 30.6771936324 7.60301 -0.728728 -1.24512 7.60364 -0.648028 -1.28896 7.61701 -0.544692 -1.33591 7.61531 -0.748823 -1.23314 -6.9815 -5.7207 -1.42793 -6.97807 -9.59638 -2.58445 -0.0 0.0 -0.0 4.87941 -1.53127 9.36858 -3.20763 -24.6997 72.1634 3.88274 -62.5121 2.35724 85.2308 -4.45418 -8.87672 -1.11064 -1.03943 -7.89929 -0.0 0.0 -0.0 -2.21515 -24.4932 0.137393 -40.9811 44.4631 -58.9982 1.12498 29.1293 -0.292303 3.47988 -0.109544 0.430914 -1.63784 -28.6532 -2.32584 0.0 0.0 0.0 29.3118 8.93568 -0.85063 -7.53662 0.236147 1.13171 25.1936 -31.6031 -4.26293 -5.65334 0.0 0.0 -0.0 0.0 -0.0 48.4212 11.4913 -9.2568 -44.9242 0.809381 -6.67342 7.48444 -29.8078 1.15501 35.8788 -0.0 -0.0 0.0 0.0 0.0 
900.869256127 585.117 -1805.45735907 -34.0891759017 54.6452957468 33.9266201277 7.46317 -0.681036 -1.11434 7.46366 -0.608752 -1.15541 7.47501 -0.51304 -1.20097 7.47368 -0.696261 -1.10489 -6.04241 -6.9763 -0.839047 -6.02697 -12.2835 -2.16042 -0.0 0.0 -0.0 4.6207 -1.46346 8.86131 -2.01311 -24.3255 72.1175 4.25133 -64.5801 2.68729 85.6524 -4.50481 -8.89577 -1.06716 -1.27432 -7.70945 -0.0 0.0 -0.0 -2.16964 -24.6814 0.0437577 -39.3234 44.7063 -59.5868 1.21152 30.9689 -0.335642 4.59401 -0.139059 0.570172 -1.56984 -28.9403 -2.82154 0.0 0.0 0.0 32.1608 8.50656 -1.15779 -8.72774 0.259759 1.31296 28.2255 -31.7459 -4.68644 -5.98496 0.0 0.0 -0.0 0.0 -0.0 44.7933 14.0653 -8.98616 -29.5028 -0.0627895 -4.47743 10.1652 -30.0989 1.55974 34.0723 -0.0 -0.0 0.0 0.0 0.0 
900.657881544 585.117 -1805.2155121 -34.1672097463 54.7268567742 34.022250143 7.46317 -0.681036 -1.11434 7.46366 -0.608752 -1.15541 7.47501 -0.51304 -1.20097 7.47368 -0.696261 -1.10489 -6.04241 -6.9763 -0.839047 -6.02697 -12.2835 -2.16042 -0.0 0.0 -0.0 4.6207 -1.46346 8.86131 -2.01311 -24.3255 72.1175 4.25133 -64.5801 2.68729 85.6524 -4.50481 -8.89577 -1.06716 -1.27432 -7.70945 -0.0 0.0 -0.0 -2.16964 -24.6814 0.0437577 -39.3234 44.7063 -59.5868 1.21152 30.9689 -0.335642 4.59401 -0.139059 0.570172 -1.56984 -28.9403 -2.82154 0.0 0.0 0.0 32.1608 8.50656 -1.15779 -8.72774 0.259759 1.31296 28.2255 -31.7459 -4.68644 -5.98496 0.0 0.0 -0.0 0.0 -0.0 44.7933 14.0653 -8.98616 -29.5028 -0.0627895 -4.47743 10.1652 -30.0989 1.55974 34.0723 -0.0 -0.0 0.0 0.0 0.0 
900.863539553 585.117 -1805.45082941 -34.0912791384 54.6475004245 33.9291988985 7.46317 -0.681036 -1.11434 7.46366 -0.608752 -1.15541 7.47501 -0.51304 -1.20097 7.47368 -0.696261 -1.10489 -6.04241 -6.9763 -0.839047 -6.02697 -12.2835 -2.16042 -0.0 0.0 -0.0 4.6207 -1.46346 8.86131 -2.01311 -24.3255 72.1175 4.25133 -64.5801 2.68729 85.6524 -4.50481 -8.89577 -1.06716 -1.27432 -7.70945 -0.0 0.0 -0.0 -2.16964 -24.6814 0.0437577 -39.3234 44.7063 -59.5868 1.21152 30.9689 -0.335642 4.59401 -0.139059 0.570172 -1.56984 -28.9403 -2.82154 0.0 0.0 0.0 32.1608 8.50656 -1.15779 -8.72774 0.259759 1.31296 28.2255 -31.7459 -4.68644 -5.98496 0.0 0.0 -0.0 0.0 -0.0 44.7933 14.0653 -8.98616 -29.5028 -0.0627895 -4.47743 10.1652 -30.0989 1.55974 34.0723 -0.0 -0.0 0.0 0.0 0.0 
901.42925423 585.117 -1806.0940556 -33.8850492509 54.4296255159 33.6760032718 7.46317 -0.681036 -1.11434 7.46366 -0.608752 -1.15541 7.47501 -0.51304 -1.20097 7.47368 -0.696261 -1.10489 -6.04241 -6.9763 -0.839047 -6.02697 -12.2835 -2.16042 -0.0 0.0 -0.0 4.6207 -1.46346 8.86131 -2.01311 -24.3255 72.1175 4.25133 -64.5801 2.68729 85.6524 -4.50481 -8.89577 -1.06716 -1.27432 -7.70945 -0.0 0.0 -0.0 -2.16964 -24.6814 0.0437577 -39.3234 44.7063 -59.5868 1.21152 30.9689 -0.335642 4.59401 -0.139059 0.570172 -1.56984 -28.9403 -2.82154 0.0 0.0 0.0 32.1608 8.50656 -1.15779 -8.72774 0.259759 1.31296 28.2255 -31.7459 -4.68644 -5.98496 0.0 0.0 -0.0 0.0 -0.0 44.7933 14.0653 -8.98616 -29.5028 -0.0627895 -4.47743 10.1652 -30.0989 1.55974 34.0723 -0.0 -0.0 0.0 0.0 0.0 
900.989005968 585.117 -1805.59400073 -34.0452087671 54.5991268242 33.8726960387 7.46317 -0.681036 -1.11434 7.46366 -0.608752 -1.15541 7.47501 -0.51304 -1.20097 7.47368 -0.696261 -1.10489 -6.04241 -6.9763 -0.839047 -6.02697 -12.2835 -2.16042 -0.0 0.0 -0.0 4.6207 -1.46346 8.86131 -2.01311 -24.3255 72.1175 4.25133 -64.5801 2.68729 85.6524 -4.50481 -8.89577 -1.06716 -1.27432 -7.70945 -0.0 0.0 -0.0 -2.16964 -24.6814 0.0437577 -39.3234 44.7063 -59.5868 1.21152 30.9689 -0.335642 4.59401 -0.139059 0.570172 -1.56984 -28.9403 -2.82154 0.0 0.0 0.0 32.1608 8.50656 -1.15779 -8.72774 0.259759 1.31296 28.2255 -31.7459 -4.68644 -5.98496 0.0 0.0 -0.0 0.0 -0.0 44.7933 14.0653 -8.98616 -29.5028 -0.0627895 -4.47743 10.1652 -30.0989 1.55974 34.0723 -0.0 -0.0 0.0 0.0 0.0 
902.256801487 585.117 -1807.02438198 -33.5901541316 54.1119996118 33.3127380848 7.46317 -0.681036 -1.11434 7.46366 -0.608752 -1.15541 7.47501 -0.51304 -1.20097 7.47368 -0.696261 -1.10489 -6.04241 -6.9763 -0.839047 -6.02697 -12.2835 -2.16042 -0.0 0.0 -0.0 4.6207 -1.46346 8.86131 -2.01311 -24.3255 72.1175 4.25133 -64.5801 2.68729 85.6524 -4.50481 -8.89577 -1.06716 -1.27432 -7.70945 -0.0 0.0 -0.0 -2.16964 -24.6814 0.0437577 -39.3234 44.7063 -59.5868 1.21152 30.9689 -0.335642 4.59401 -0.139059 0.570172 -1.56984 -28.9403 -2.82154 0.0 0.0 0.0 32.1608 8.50656 -1.15779 -8.72774 0.259759 1.31296 28.2255 -31.7459 -4.68644 -5.98496 0.0 0.0 -0.0 0.0 -0.0 44.7933 14.0653 -8.98616 -29.5028 -0.0627895 -4.47743 10.1652 -30.0989 1.55974 34.0723 -0.0 -0.0 0.0 0.0 0.0 
904.143174243 585.117 -1809.09930172 -32.9465182539 53.3927481495 32.5146671367 7.46317 -0.681036 -1.11434 7.46366 -0.608752 -1.15541 7.47501 -0.51304 -1.20097 7.47368 -0.696261 -1.10489 -6.04241 -6.9763 -0.839047 -6.02697 -12.2835 -2.16042 -0.0 0.0 -0.0 4.6207 -1.46346 8.86131 -2.01311 -24.3255 72.1175 4.25133 -64.5801 2.68729 85.6524 -4.50481 -8.89577 -1.06716 -1.27432 -7.70945 -0.0 0.0 -0.0 -2.16964 -24.6814 0.0437577 -39.3234 44.7063 -59.5868 1.21152 30.9689 -0.335642 4.59401 -0.139059 0.570172 -1.56984 -28.9403 -2.82154 0.0 0.0 0.0 32.1608 8.50656 -1.15779 -8.72774 0.259759 1.31296 28.2255 -31.7459 -4.68644 -5.98496 0.0 0.0 -0.0 0.0 -0.0 44.7933 14.0653 -8.98616 -29.5028 -0.0627895 -4.47743 10.1652 -30.0989 1.55974 34.0723 -0.0 -0.0 0.0 0.0 0.0 
